HIERARCHY
ROOT Hips
{
	OFFSET -0.001795 -0.223333 0.028219
	CHANNELS 6 Xposition Yposition Zposition Zrotation Yrotation Xrotation 
	JOINT LeftUpLeg
	{
		OFFSET 0.069520 -0.091406 -0.006815
		CHANNELS 3 Zrotation Yrotation Xrotation
		JOINT LeftLeg
		{
			OFFSET 0.034277 -0.375199 -0.004496
			CHANNELS 3 Zrotation Yrotation Xrotation
			JOINT LeftFoot
			{
				OFFSET -0.013596 -0.397961 -0.043693
				CHANNELS 3 Zrotation Yrotation Xrotation
				JOINT LeftToe
				{
					OFFSET 0.026358 -0.055791 0.119288
					CHANNELS 3 Zrotation Yrotation Xrotation
					End Site
					{
						OFFSET 0.000000 0.000000 0.000000
					}
				}
			}
		}
	}
	JOINT RightUpLeg
	{
		OFFSET -0.067670 -0.090522 -0.004320
		CHANNELS 3 Zrotation Yrotation Xrotation
		JOINT RightLeg
		{
			OFFSET -0.038290 -0.382569 -0.008850
			CHANNELS 3 Zrotation Yrotation Xrotation
			JOINT RightFoot
			{
				OFFSET 0.015774 -0.398415 -0.042312
				CHANNELS 3 Zrotation Yrotation Xrotation
				JOINT RightToe
				{
					OFFSET -0.025372 -0.048144 0.123348
					CHANNELS 3 Zrotation Yrotation Xrotation
					End Site
					{
						OFFSET 0.000000 0.000000 0.000000
					}
				}
			}
		}
	}
	JOINT Spine
	{
		OFFSET -0.002533 0.108963 -0.026696
		CHANNELS 3 Zrotation Yrotation Xrotation
		JOINT Spine1
		{
			OFFSET 0.005487 0.135180 0.001092
			CHANNELS 3 Zrotation Yrotation Xrotation
			JOINT Spine2
			{
				OFFSET 0.001457 0.052922 0.025425
				CHANNELS 3 Zrotation Yrotation Xrotation
				JOINT Neck
				{
					OFFSET -0.002778 0.213870 -0.042857
					CHANNELS 3 Zrotation Yrotation Xrotation
					JOINT Head
					{
						OFFSET 0.005152 0.064970 0.051349
						CHANNELS 3 Zrotation Yrotation Xrotation
						End Site
						{
							OFFSET 0.000000 0.000000 0.000000
						}
					}
				}
				JOINT LeftShoulder
				{
					OFFSET 0.078845 0.121749 -0.034090
					CHANNELS 3 Zrotation Yrotation Xrotation
					JOINT LeftArm
					{
						OFFSET 0.090977 0.030469 -0.008868
						CHANNELS 3 Zrotation Yrotation Xrotation
						JOINT LeftForeArm
						{
							OFFSET 0.259612 -0.012772 -0.027456
							CHANNELS 3 Zrotation Yrotation Xrotation
							JOINT LeftHand
							{
								OFFSET 0.249234 0.008986 -0.001171
								CHANNELS 3 Zrotation Yrotation Xrotation
								End Site
								{
									OFFSET 0.000000 0.000000 0.000000
								}
							}
						}
					}
				}
				JOINT RightShoulder
				{
					OFFSET -0.081759 0.118833 -0.038615
					CHANNELS 3 Zrotation Yrotation Xrotation
					JOINT RightArm
					{
						OFFSET -0.096012 0.032551 -0.009143
						CHANNELS 3 Zrotation Yrotation Xrotation
						JOINT RightForeArm
						{
							OFFSET -0.253742 -0.013329 -0.021401
							CHANNELS 3 Zrotation Yrotation Xrotation
							JOINT RightHand
							{
								OFFSET -0.255298 0.007772 -0.005559
								CHANNELS 3 Zrotation Yrotation Xrotation
								End Site
								{
									OFFSET 0.000000 0.000000 0.000000
								}
							}
						}
					}
				}
			}
		}
	}
}
MOTION
Frames: 9
Frame Time: 0.050000
0.000000 0.921659 0.000000 0.921653 -5.718688 -2.239276 6.592057 -0.465174 -20.468182 -5.951697 1.160348 14.094436 5.036925 11.868724 9.835789 0.000000 0.000000 0.000000 -3.304202 -0.110138 3.346478 2.011212 0.332404 15.654570 -3.875201 -4.481542 -10.754043 0.000000 0.000000 0.000000 7.349041 -1.093938 11.132634 -6.527398 2.212185 -21.123621 2.210611 12.341919 27.240950 11.270641 -4.943087 -19.222764 0.000000 0.000000 0.000000 -13.130399 -6.090136 0.656688 -47.188816 1.031261 -7.810094 -5.009351 -62.726231 4.673067 0.000000 0.000000 0.000000 20.255977 -1.187912 0.493119 56.176930 17.422539 -0.039536 -1.780221 42.220914 2.969770 0.000000 0.000000 0.000000 
0.009774 0.921586 0.028755 0.614952 -6.747737 -2.205011 5.449262 -0.590323 -18.383645 -2.972597 0.389112 9.314580 1.286421 5.614284 10.584107 0.000000 0.000000 0.000000 -4.103067 0.004891 2.395278 2.519609 0.458957 20.236280 -3.770143 -4.464924 -9.934228 0.000000 0.000000 0.000000 6.476062 -1.021919 11.386768 -6.016771 1.980763 -24.361189 2.262429 10.216049 29.587852 10.631862 -5.021489 -19.227276 0.000000 0.000000 0.000000 -12.940441 -5.372978 0.950713 -46.606163 -1.393339 -7.166823 6.941205 -64.689139 -1.747998 0.000000 0.000000 0.000000 20.911958 -0.861605 0.034741 56.807276 16.886709 -0.472679 -0.676091 41.399198 3.020181 0.000000 0.000000 0.000000 
0.019708 0.922730 0.056851 0.823456 -7.905664 -3.950313 4.629174 -0.611429 -16.164201 -3.382912 0.559899 12.520883 2.479434 7.386539 9.952427 0.000000 0.000000 0.000000 -6.050659 0.141795 1.735822 4.218314 0.433478 28.424822 -2.702996 -3.220448 -6.522378 0.000000 0.000000 0.000000 5.379485 -0.851722 11.096756 -5.273254 1.813437 -22.016001 0.948545 11.431870 29.352259 10.446413 -4.772904 -19.295638 0.000000 0.000000 0.000000 -10.894112 -7.811066 2.127925 -43.857599 -6.486885 -5.047514 24.356097 -64.687196 -13.120550 0.000000 0.000000 0.000000 22.034425 -0.729013 0.306947 56.136238 15.367506 -1.419654 0.039565 39.797157 3.181591 0.000000 0.000000 0.000000 
0.028515 0.926681 0.082320 0.471584 -7.775995 -4.901963 4.137113 -0.618134 -14.279311 -4.355621 0.857325 14.650397 3.072971 8.399656 9.755452 0.000000 0.000000 0.000000 -6.599389 0.248844 -1.053625 5.500377 0.361982 36.995457 -3.680322 -7.973235 -2.726268 0.000000 0.000000 0.000000 4.086244 -0.720388 10.945138 -4.668322 1.663601 -20.884858 0.441226 8.183118 30.084812 9.141352 -4.625223 -18.304101 0.000000 0.000000 0.000000 -11.332422 -8.289800 2.871961 -40.137864 -10.372101 -3.681700 43.445351 -63.740567 -24.307785 0.000000 0.000000 0.000000 22.599239 0.544446 0.175120 56.044353 14.000197 -2.080398 0.469251 37.207989 2.700515 0.000000 0.000000 0.000000 
0.034936 0.932591 0.104185 -0.316181 -8.827530 -4.863584 4.448093 -0.446933 -11.447506 -4.944879 0.991054 12.896749 4.366850 10.527114 9.789703 0.000000 0.000000 0.000000 -7.067107 0.433964 -5.274863 7.581661 -0.176815 41.989869 -5.166671 -12.737392 0.401646 0.000000 0.000000 0.000000 2.935327 -0.614069 10.873351 -3.535919 1.313846 -20.163488 0.438278 7.029367 29.671584 8.351488 -4.550101 -16.961425 0.000000 0.000000 0.000000 -10.288418 -10.483033 4.105138 -36.969675 -14.805532 -2.260815 55.516749 -60.333656 -29.997052 0.000000 0.000000 0.000000 22.548036 1.313201 0.031507 55.646086 11.546993 -3.018759 0.902831 35.491756 2.418499 0.000000 0.000000 0.000000 
0.039236 0.938709 0.122512 -1.211445 -10.109659 -4.652889 4.982366 -0.272378 -8.905091 -5.285695 1.002995 9.975137 5.544663 12.454248 9.872517 0.000000 0.000000 0.000000 -6.957665 0.586874 -8.135390 8.357790 -0.344626 41.225201 -6.653979 -16.112391 0.169593 0.000000 0.000000 0.000000 3.382956 -0.691998 11.818788 -3.472652 1.270748 -21.699087 -0.225619 4.780061 29.736893 7.211322 -4.199417 -17.078201 0.000000 0.000000 0.000000 -8.822032 -10.978986 4.638142 -34.933454 -18.617012 -1.287228 64.948034 -55.876572 -32.276578 0.000000 0.000000 0.000000 21.718026 1.691355 -0.631840 56.772304 8.960355 -4.083856 1.983004 33.315890 2.259588 0.000000 0.000000 0.000000 
0.041731 0.942726 0.138696 -2.373572 -11.140255 -3.782576 5.912793 -0.080609 -5.960344 -5.259492 0.863798 5.514754 5.963253 13.095103 9.317934 0.000000 0.000000 0.000000 -6.547338 0.708061 -9.607072 9.013857 -0.674660 35.760922 -7.658906 -18.400947 0.537236 0.000000 0.000000 0.000000 4.219527 -0.786078 12.044068 -2.870923 1.075773 -21.905705 -1.501558 4.444547 29.061987 7.520421 -4.621677 -16.448369 0.000000 0.000000 0.000000 -5.992453 -12.329890 5.001210 -33.099695 -22.734544 -0.169277 68.316890 -49.776614 -29.922843 0.000000 0.000000 0.000000 21.716167 0.166244 -1.808008 57.149559 6.819319 -5.002287 2.516368 32.414723 2.247697 0.000000 0.000000 0.000000 
0.042402 0.945516 0.153206 -2.982679 -11.459373 -3.695181 6.488462 0.038069 -3.713491 -5.327723 0.814599 3.202052 6.261816 13.665254 10.547265 0.000000 0.000000 0.000000 -6.063201 0.750079 -9.910782 7.734003 -0.405310 28.811887 -7.201820 -17.665174 2.329334 0.000000 0.000000 0.000000 3.706547 -0.755134 12.440377 -1.961644 0.810967 -21.303344 -2.737949 2.953056 26.897018 6.847934 -4.459368 -15.182874 0.000000 0.000000 0.000000 -4.828799 -13.428153 5.391491 -31.082431 -26.328176 0.792141 67.659176 -44.673869 -25.834652 0.000000 0.000000 0.000000 20.602576 1.004247 -1.749505 58.567618 4.340573 -6.016343 1.933016 31.303193 1.824774 0.000000 0.000000 0.000000 
0.041177 0.946124 0.166147 -3.137790 -11.266395 -2.653727 6.466635 0.024362 -3.462970 -4.685125 0.684233 2.403300 5.839009 12.921617 9.680961 0.000000 0.000000 0.000000 -6.274780 0.792987 -10.537298 5.539280 -0.060690 21.150538 -5.257390 -13.952832 3.935381 0.000000 0.000000 0.000000 3.360321 -0.720054 12.096762 -2.418068 0.951540 -22.111790 -3.095546 0.757222 26.584992 7.169296 -5.091947 -14.429773 0.000000 0.000000 0.000000 -3.989205 -14.245788 5.744851 -29.531631 -30.584506 1.770829 65.848951 -40.516304 -21.744836 0.000000 0.000000 0.000000 20.414156 1.630043 -2.042384 58.858126 3.252110 -6.410699 1.970294 29.425361 1.518961 0.000000 0.000000 0.000000 
